<?xml version="1.0" standalone="no"?>
<!DOCTYPE svg PUBLIC "-//W3C//DTD SVG 20010904//EN"
 "http://www.w3.org/TR/2001/REC-SVG-20010904/DTD/svg10.dtd">
<svg version="1.0" xmlns="http://www.w3.org/2000/svg"
 width="250.000000pt" height="250.000000pt" viewBox="0 0 250.000000 250.000000"
 preserveAspectRatio="xMidYMid meet">
<metadata>
Created by potrace 1.11, written by Peter Selinger 2001-2013
</metadata>
<g transform="translate(0.000000,250.000000) scale(0.100000,-0.100000)"
fill="#000000" stroke="none">
<path d="M953 2223 c-17 -21 -59 -67 -92 -103 -34 -36 -78 -83 -98 -105 -39
-43 -297 -320 -433 -466 -25 -26 -74 -80 -110 -120 -36 -40 -81 -88 -100 -108
-101 -104 -120 -131 -120 -169 l0 -37 48 50 c26 28 92 100 147 160 55 61 116
126 135 146 19 20 69 73 110 119 41 45 93 102 115 125 34 36 80 86 250 269 81
88 181 199 185 206 9 15 23 -1 110 -120 47 -63 87 -117 91 -120 21 -16 149
-205 149 -220 0 -10 -18 -40 -40 -66 -45 -55 -46 -57 -24 -75 14 -12 20 -9 41
16 14 17 34 40 44 53 23 26 37 28 46 5 10 -26 36 -53 51 -53 26 0 23 31 -6 71
-28 38 -32 65 -11 79 4 3 35 43 69 90 35 47 67 87 72 88 4 2 8 10 8 17 0 7 4
15 8 17 5 2 34 37 64 78 54 73 85 107 92 99 6 -7 126 -192 126 -194 0 -1 29
-46 65 -100 36 -53 65 -99 65 -102 0 -2 11 -19 25 -37 14 -18 25 -36 25 -40 0
-4 5 -12 10 -19 20 -23 100 -150 100 -158 0 -5 5 -9 10 -9 6 0 10 -4 10 -10 0
-5 13 -29 29 -52 82 -121 181 -277 181 -286 0 -6 3 -12 8 -14 10 -5 72 -97 72
-108 0 -6 5 -10 10 -10 6 0 10 17 10 38 0 29 -16 61 -76 152 -41 63 -77 123
-80 133 -4 9 -10 17 -15 17 -5 0 -9 5 -9 11 0 6 -11 25 -25 43 -14 18 -25 36
-25 41 0 4 -13 24 -30 45 -16 21 -30 41 -30 45 0 4 -13 25 -28 48 -73 106
-161 245 -173 270 -7 15 -16 27 -21 27 -4 0 -8 5 -8 10 0 6 -18 35 -40 65 -22
30 -40 57 -40 61 0 4 -22 40 -50 81 -27 40 -50 77 -50 82 0 14 -34 38 -53 38
-10 0 -32 -19 -50 -41 -17 -23 -34 -43 -37 -46 -3 -3 -17 -21 -31 -40 -15 -19
-39 -48 -53 -65 -14 -16 -26 -33 -26 -37 0 -4 -6 -13 -13 -20 -7 -7 -33 -40
-57 -72 -25 -33 -57 -73 -71 -89 l-27 -29 -43 58 c-24 33 -51 68 -61 78 -10
11 -18 23 -18 27 0 6 -25 39 -80 106 -6 7 -10 15 -10 18 0 4 -7 13 -15 21 -8
9 -40 51 -72 95 -66 92 -83 98 -130 42z"/>
<path d="M796 1642 c-3 -5 -33 -12 -65 -16 -33 -4 -63 -11 -66 -16 -4 -6 -17
-10 -31 -10 -31 0 -127 -52 -194 -105 -42 -33 -160 -159 -160 -171 0 -6 -6
-17 -13 -23 -8 -6 -26 -41 -41 -78 -16 -38 -32 -77 -37 -88 -31 -74 -30 -362
2 -440 4 -11 11 -31 15 -45 7 -28 56 -132 64 -140 4 -3 19 -23 35 -45 39 -54
163 -171 200 -190 17 -9 44 -24 60 -35 17 -10 37 -19 45 -19 8 -1 28 -8 44
-16 15 -8 47 -15 70 -15 23 0 47 -5 53 -11 12 -12 159 -7 238 9 48 9 115 32
125 42 7 7 42 29 59 37 8 3 22 14 32 24 9 9 23 21 31 25 23 14 93 115 110 159
39 97 44 161 22 285 -7 43 -71 175 -103 214 -12 14 -39 16 -210 14 l-196 -3 0
-155 0 -155 68 -1 c77 -1 90 -10 89 -54 -1 -48 -24 -59 -126 -60 -75 0 -96 4
-140 26 -95 47 -141 104 -180 219 -20 62 -20 84 2 165 21 78 41 115 81 155 42
41 49 46 109 78 49 25 63 27 167 27 65 0 116 -4 120 -10 3 -5 17 -10 31 -10
l24 0 0 204 0 204 -67 12 c-90 16 -259 24 -267 12z"/>
<path d="M1470 775 l0 -755 200 2 201 3 2 330 c2 312 3 332 22 365 19 31 26
35 65 38 39 2 48 -2 64 -24 18 -25 19 -50 21 -368 l2 -341 199 0 199 0 3 390
c3 415 1 439 -48 550 -33 73 -119 148 -183 160 -20 4 -40 11 -43 16 -7 13
-118 11 -130 -1 -6 -6 -23 -13 -38 -16 -15 -2 -45 -16 -67 -30 -69 -43 -71
-36 -68 215 l3 216 -202 3 -202 2 0 -755z"/>
</g>
</svg>
